<mxfile host="app.diagrams.net" modified="2024-05-04T11:17:37.759Z" agent="Mozilla/5.0 (Windows NT 10.0; Win64; x64; rv:125.0) Gecko/20100101 Firefox/125.0" etag="rxlJcY2mNlhdr2To-nWx" version="24.3.1" type="device">
  <diagram name="Page-1" id="iswscSuKRbAMyJHMyDdT">
    <mxGraphModel dx="1641" dy="741" grid="0" gridSize="10" guides="1" tooltips="1" connect="1" arrows="1" fold="1" page="0" pageScale="1" pageWidth="827" pageHeight="1169" math="0" shadow="0">
      <root>
        <mxCell id="0" />
        <mxCell id="1" parent="0" />
        <mxCell id="H1bqHnNHrVxD_mPvs3TU-7" value="" style="endArrow=none;html=1;rounded=0;entryX=0.5;entryY=1;entryDx=0;entryDy=0;exitX=0.5;exitY=0;exitDx=0;exitDy=0;fillColor=#dae8fc;strokeColor=#6c8ebf;" parent="1" edge="1">
          <mxGeometry width="50" height="50" relative="1" as="geometry">
            <mxPoint x="440" y="259.9999999999999" as="sourcePoint" />
            <mxPoint x="440" y="160" as="targetPoint" />
          </mxGeometry>
        </mxCell>
        <mxCell id="H1bqHnNHrVxD_mPvs3TU-9" value="Gerente&lt;div&gt;Geral&lt;/div&gt;" style="rounded=0;whiteSpace=wrap;html=1;fillColor=#dae8fc;strokeColor=#6c8ebf;fontStyle=1;fontSize=12;fontFamily=Verdana;" parent="1" vertex="1">
          <mxGeometry x="380" y="120" width="120" height="40" as="geometry" />
        </mxCell>
        <mxCell id="H1bqHnNHrVxD_mPvs3TU-10" value="" style="endArrow=none;html=1;rounded=0;exitX=1;exitY=0.5;exitDx=0;exitDy=0;fillColor=#dae8fc;strokeColor=#6c8ebf;" parent="1" edge="1">
          <mxGeometry width="50" height="50" relative="1" as="geometry">
            <mxPoint x="380" y="200" as="sourcePoint" />
            <mxPoint x="440" y="200" as="targetPoint" />
          </mxGeometry>
        </mxCell>
        <mxCell id="H1bqHnNHrVxD_mPvs3TU-11" value="Assistente&lt;div&gt;Gerencia&lt;/div&gt;" style="rounded=0;whiteSpace=wrap;html=1;fillColor=#dae8fc;strokeColor=#6c8ebf;fontStyle=1;fontSize=12;fontFamily=Verdana;" parent="1" vertex="1">
          <mxGeometry x="260" y="180" width="120" height="40" as="geometry" />
        </mxCell>
        <mxCell id="H1bqHnNHrVxD_mPvs3TU-12" value="Departamento&lt;div&gt;Financeiro&lt;/div&gt;" style="rounded=0;whiteSpace=wrap;html=1;fillColor=#dae8fc;strokeColor=#6c8ebf;fontStyle=1;fontSize=12;fontFamily=Verdana;" parent="1" vertex="1">
          <mxGeometry x="170" y="280" width="120" height="40" as="geometry" />
        </mxCell>
        <mxCell id="H1bqHnNHrVxD_mPvs3TU-13" value="Departamento&lt;br&gt;&lt;div&gt;Logístico&lt;/div&gt;" style="rounded=0;whiteSpace=wrap;html=1;fillColor=#dae8fc;strokeColor=#6c8ebf;fontStyle=1;fontSize=12;fontFamily=Verdana;" parent="1" vertex="1">
          <mxGeometry x="30" y="280" width="120" height="40" as="geometry" />
        </mxCell>
        <mxCell id="H1bqHnNHrVxD_mPvs3TU-14" value="Departamento&lt;br&gt;RH" style="rounded=0;whiteSpace=wrap;html=1;fillColor=#dae8fc;strokeColor=#6c8ebf;fontStyle=1;fontSize=12;fontFamily=Verdana;" parent="1" vertex="1">
          <mxGeometry x="450" y="280" width="120" height="40" as="geometry" />
        </mxCell>
        <mxCell id="H1bqHnNHrVxD_mPvs3TU-15" value="Departamento&lt;div&gt;Alojamento&lt;/div&gt;" style="rounded=0;whiteSpace=wrap;html=1;fillColor=#dae8fc;strokeColor=#6c8ebf;fontStyle=1;fontSize=12;fontFamily=Verdana;" parent="1" vertex="1">
          <mxGeometry x="730" y="280" width="120" height="40" as="geometry" />
        </mxCell>
        <mxCell id="H1bqHnNHrVxD_mPvs3TU-16" value="Departamento&lt;div&gt;F&amp;amp;B&lt;/div&gt;" style="rounded=0;whiteSpace=wrap;html=1;fillColor=#dae8fc;strokeColor=#6c8ebf;fontStyle=1;fontSize=12;fontFamily=Verdana;" parent="1" vertex="1">
          <mxGeometry x="590" y="280" width="120" height="40" as="geometry" />
        </mxCell>
        <mxCell id="H1bqHnNHrVxD_mPvs3TU-17" value="Departamento&lt;div&gt;Comercial&lt;/div&gt;" style="rounded=0;whiteSpace=wrap;html=1;fillColor=#dae8fc;strokeColor=#6c8ebf;fontStyle=1;fontSize=12;fontFamily=Verdana;" parent="1" vertex="1">
          <mxGeometry x="310" y="280" width="120" height="40" as="geometry" />
        </mxCell>
        <mxCell id="H1bqHnNHrVxD_mPvs3TU-18" value="" style="endArrow=none;html=1;rounded=0;exitX=0.5;exitY=0;exitDx=0;exitDy=0;fillColor=#dae8fc;strokeColor=#6c8ebf;" parent="1" source="H1bqHnNHrVxD_mPvs3TU-13" edge="1">
          <mxGeometry width="50" height="50" relative="1" as="geometry">
            <mxPoint x="430" y="340" as="sourcePoint" />
            <mxPoint x="90" y="260" as="targetPoint" />
          </mxGeometry>
        </mxCell>
        <mxCell id="H1bqHnNHrVxD_mPvs3TU-19" value="" style="endArrow=none;html=1;rounded=0;exitX=0.5;exitY=0;exitDx=0;exitDy=0;fillColor=#dae8fc;strokeColor=#6c8ebf;" parent="1" edge="1">
          <mxGeometry width="50" height="50" relative="1" as="geometry">
            <mxPoint x="229.58" y="280" as="sourcePoint" />
            <mxPoint x="229.58" y="260" as="targetPoint" />
          </mxGeometry>
        </mxCell>
        <mxCell id="H1bqHnNHrVxD_mPvs3TU-20" value="" style="endArrow=none;html=1;rounded=0;exitX=0.5;exitY=0;exitDx=0;exitDy=0;fillColor=#dae8fc;strokeColor=#6c8ebf;" parent="1" edge="1">
          <mxGeometry width="50" height="50" relative="1" as="geometry">
            <mxPoint x="369.58000000000004" y="280" as="sourcePoint" />
            <mxPoint x="369.58000000000004" y="260" as="targetPoint" />
          </mxGeometry>
        </mxCell>
        <mxCell id="H1bqHnNHrVxD_mPvs3TU-21" value="" style="endArrow=none;html=1;rounded=0;exitX=0.5;exitY=0;exitDx=0;exitDy=0;fillColor=#dae8fc;strokeColor=#6c8ebf;" parent="1" edge="1">
          <mxGeometry width="50" height="50" relative="1" as="geometry">
            <mxPoint x="509.58" y="280" as="sourcePoint" />
            <mxPoint x="509.58" y="260" as="targetPoint" />
          </mxGeometry>
        </mxCell>
        <mxCell id="H1bqHnNHrVxD_mPvs3TU-22" value="" style="endArrow=none;html=1;rounded=0;exitX=0.5;exitY=0;exitDx=0;exitDy=0;fillColor=#dae8fc;strokeColor=#6c8ebf;" parent="1" edge="1">
          <mxGeometry width="50" height="50" relative="1" as="geometry">
            <mxPoint x="649.5799999999999" y="280" as="sourcePoint" />
            <mxPoint x="649.5799999999999" y="260" as="targetPoint" />
          </mxGeometry>
        </mxCell>
        <mxCell id="H1bqHnNHrVxD_mPvs3TU-23" value="" style="endArrow=none;html=1;rounded=0;exitX=0.5;exitY=0;exitDx=0;exitDy=0;fillColor=#dae8fc;strokeColor=#6c8ebf;" parent="1" edge="1">
          <mxGeometry width="50" height="50" relative="1" as="geometry">
            <mxPoint x="789.58" y="280" as="sourcePoint" />
            <mxPoint x="789.58" y="260" as="targetPoint" />
          </mxGeometry>
        </mxCell>
        <mxCell id="H1bqHnNHrVxD_mPvs3TU-24" value="" style="endArrow=none;html=1;rounded=0;fillColor=#dae8fc;strokeColor=#6c8ebf;" parent="1" edge="1">
          <mxGeometry width="50" height="50" relative="1" as="geometry">
            <mxPoint x="90" y="260" as="sourcePoint" />
            <mxPoint x="790" y="260" as="targetPoint" />
          </mxGeometry>
        </mxCell>
        <mxCell id="0THEpRWE1tJ0HSbsHLF8-1" value="Qualidade, Ambiente e Segurança" style="rounded=0;whiteSpace=wrap;html=1;fillColor=#dae8fc;strokeColor=#6c8ebf;fontStyle=1;fontSize=12;fontFamily=Verdana;" vertex="1" parent="1">
          <mxGeometry x="-110" y="280" width="120" height="40" as="geometry" />
        </mxCell>
        <mxCell id="0THEpRWE1tJ0HSbsHLF8-3" value="GestãoTI" style="rounded=0;whiteSpace=wrap;html=1;fillColor=#dae8fc;strokeColor=#6c8ebf;fontStyle=1;fontSize=12;fontFamily=Verdana;" vertex="1" parent="1">
          <mxGeometry x="870" y="280" width="120" height="40" as="geometry" />
        </mxCell>
        <mxCell id="0THEpRWE1tJ0HSbsHLF8-7" value="" style="endArrow=none;html=1;rounded=0;exitX=0.5;exitY=0;exitDx=0;exitDy=0;fillColor=#dae8fc;strokeColor=#6c8ebf;" edge="1" parent="1" source="0THEpRWE1tJ0HSbsHLF8-1">
          <mxGeometry width="50" height="50" relative="1" as="geometry">
            <mxPoint x="29" y="265" as="sourcePoint" />
            <mxPoint x="91" y="260" as="targetPoint" />
            <Array as="points">
              <mxPoint x="-50" y="261" />
            </Array>
          </mxGeometry>
        </mxCell>
        <mxCell id="0THEpRWE1tJ0HSbsHLF8-8" value="" style="endArrow=none;html=1;rounded=0;entryX=0.5;entryY=0;entryDx=0;entryDy=0;fillColor=#dae8fc;strokeColor=#6c8ebf;" edge="1" parent="1" target="0THEpRWE1tJ0HSbsHLF8-3">
          <mxGeometry width="50" height="50" relative="1" as="geometry">
            <mxPoint x="789" y="260" as="sourcePoint" />
            <mxPoint x="981" y="296" as="targetPoint" />
            <Array as="points">
              <mxPoint x="930" y="260" />
            </Array>
          </mxGeometry>
        </mxCell>
      </root>
    </mxGraphModel>
  </diagram>
</mxfile>
